<?xml version="1.0" encoding="utf-8"?>
<!-- Generator: Adobe Illustrator 21.1.0, SVG Export Plug-In . SVG Version: 6.00 Build 0)  -->
<svg version="1.1" id="Calque_1" xmlns="http://www.w3.org/2000/svg" xmlns:xlink="http://www.w3.org/1999/xlink" x="0px" y="0px"
	 viewBox="0 0 20 20" enable-background="new 0 0 20 20" xml:space="preserve">
<g id="Calque_1_1_">
	<g>
		<g>
			<path fill="#989898" d="M13.6,16.1c4.3-1.1,6.8-5.5,5.7-9.7c-1.1-4.3-5.5-6.8-9.7-5.7c-4.3,1.1-6.8,5.5-5.7,9.7
				C5,14.6,9.4,17.2,13.6,16.1z M4.9,10.1c-1-3.7,1.3-7.5,5-8.5c3.7-1,7.5,1.3,8.5,5c1,3.7-1.3,7.5-5,8.5
				C9.6,16.1,5.8,13.8,4.9,10.1z M0.5,18.6l4.2-4.2c0,0,0.2,0.2,0.2,0.3c0,0,0.1,0.1,0.3,0.3h0c0.1,0.1,0.2,0.2,0.4,0.3l-4.2,4.2
				c-0.1,0.1-0.4,0.1-0.7-0.2l-0.1-0.1c0,0,0,0-0.1-0.1l0,0c0,0,0,0,0,0c0,0,0,0,0,0l0,0C0.4,19,0.3,18.7,0.5,18.6z"/>
		</g>
	</g>
</g>
</svg>
